<mxfile host="app.diagrams.net" agent="Mozilla/5.0 (Windows NT 10.0; Win64; x64) AppleWebKit/537.36 (KHTML, like Gecko) Chrome/131.0.0.0 Safari/537.36 Edg/131.0.0.0" version="24.8.6">
  <diagram id="6a731a19-8d31-9384-78a2-239565b7b9f0" name="Page-1">
    <mxGraphModel dx="1665" dy="770" grid="1" gridSize="10" guides="1" tooltips="1" connect="1" arrows="1" fold="1" page="1" pageScale="1" pageWidth="1169" pageHeight="827" background="none" math="0" shadow="0">
      <root>
        <mxCell id="0" />
        <mxCell id="1" parent="0" />
        <mxCell id="18QHKeJAl8htVsF2yORV-85" value="" style="edgeStyle=orthogonalEdgeStyle;rounded=0;orthogonalLoop=1;jettySize=auto;html=1;" parent="1" source="18QHKeJAl8htVsF2yORV-55" target="18QHKeJAl8htVsF2yORV-84" edge="1">
          <mxGeometry relative="1" as="geometry" />
        </mxCell>
        <mxCell id="18QHKeJAl8htVsF2yORV-98" style="edgeStyle=orthogonalEdgeStyle;rounded=0;orthogonalLoop=1;jettySize=auto;html=1;exitX=1;exitY=0.5;exitDx=0;exitDy=0;exitPerimeter=0;entryX=0;entryY=0.5;entryDx=0;entryDy=0;startArrow=classicThin;startFill=0;dashed=1;" parent="1" source="18QHKeJAl8htVsF2yORV-55" target="18QHKeJAl8htVsF2yORV-92" edge="1">
          <mxGeometry relative="1" as="geometry" />
        </mxCell>
        <mxCell id="18QHKeJAl8htVsF2yORV-55" value="&lt;b&gt;influxDB&lt;/b&gt; / &lt;b&gt;TDengine*&lt;/b&gt;" style="strokeWidth=2;html=1;shape=mxgraph.flowchart.database;whiteSpace=wrap;" parent="1" vertex="1">
          <mxGeometry x="770" y="199" width="150" height="111" as="geometry" />
        </mxCell>
        <mxCell id="18QHKeJAl8htVsF2yORV-66" style="edgeStyle=orthogonalEdgeStyle;rounded=0;orthogonalLoop=1;jettySize=auto;html=1;exitX=1;exitY=0.5;exitDx=0;exitDy=0;entryX=0;entryY=0.5;entryDx=0;entryDy=0;entryPerimeter=0;startArrow=classic;startFill=0;" parent="1" source="18QHKeJAl8htVsF2yORV-58" target="18QHKeJAl8htVsF2yORV-55" edge="1">
          <mxGeometry relative="1" as="geometry" />
        </mxCell>
        <mxCell id="18QHKeJAl8htVsF2yORV-77" value="&lt;p&gt;Fysieke locatie (kosten 500 euro per 25 devices)&lt;/p&gt;" style="swimlane;whiteSpace=wrap;html=1;" parent="1" vertex="1">
          <mxGeometry x="70" y="90" width="630" height="350" as="geometry">
            <mxRectangle x="70" y="90" width="120" height="30" as="alternateBounds" />
          </mxGeometry>
        </mxCell>
        <mxCell id="18QHKeJAl8htVsF2yORV-60" value="" style="edgeStyle=orthogonalEdgeStyle;rounded=0;orthogonalLoop=1;jettySize=auto;html=1;entryX=0;entryY=0.5;entryDx=0;entryDy=0;startArrow=block;startFill=0;" parent="18QHKeJAl8htVsF2yORV-77" source="18QHKeJAl8htVsF2yORV-56" target="18QHKeJAl8htVsF2yORV-58" edge="1">
          <mxGeometry relative="1" as="geometry">
            <mxPoint x="167" y="249" as="targetPoint" />
          </mxGeometry>
        </mxCell>
        <mxCell id="18QHKeJAl8htVsF2yORV-56" value="" style="sketch=0;outlineConnect=0;fillColor=#000000;strokeColor=#6F0000;dashed=0;verticalLabelPosition=bottom;verticalAlign=top;align=center;html=1;fontSize=12;fontStyle=0;aspect=fixed;pointerEvents=1;shape=mxgraph.aws4.iot_thing_plc;fontColor=#ffffff;" parent="18QHKeJAl8htVsF2yORV-77" vertex="1">
          <mxGeometry x="30" y="210" width="78" height="78" as="geometry" />
        </mxCell>
        <mxCell id="18QHKeJAl8htVsF2yORV-69" value="" style="edgeStyle=orthogonalEdgeStyle;rounded=0;orthogonalLoop=1;jettySize=auto;html=1;dashed=1;startArrow=block;startFill=0;" parent="18QHKeJAl8htVsF2yORV-77" source="18QHKeJAl8htVsF2yORV-58" target="18QHKeJAl8htVsF2yORV-68" edge="1">
          <mxGeometry relative="1" as="geometry" />
        </mxCell>
        <mxCell id="18QHKeJAl8htVsF2yORV-58" value="&lt;b&gt;EdgeX Foundry&lt;/b&gt;" style="shape=process;whiteSpace=wrap;html=1;backgroundOutline=1;size=0.08333333333333333;" parent="18QHKeJAl8htVsF2yORV-77" vertex="1">
          <mxGeometry x="420" y="219" width="120" height="60" as="geometry" />
        </mxCell>
        <mxCell id="18QHKeJAl8htVsF2yORV-68" value="&lt;b&gt;Red-Node&lt;/b&gt;" style="shape=process;whiteSpace=wrap;html=1;backgroundOutline=1;size=0.08333333333333333;" parent="18QHKeJAl8htVsF2yORV-77" vertex="1">
          <mxGeometry x="420" y="39" width="120" height="60" as="geometry" />
        </mxCell>
        <mxCell id="18QHKeJAl8htVsF2yORV-72" value="&lt;b&gt;optioneel&lt;/b&gt; door middel van een logic blocks breed scala aan activiteiten kunnen uitvoeren&lt;br&gt;&lt;br&gt;&lt;b&gt;note: &lt;/b&gt;kan op locatie of in de cloud, lokaal is sneller cloud is makkelijker aanpasbaar." style="text;html=1;align=center;verticalAlign=middle;whiteSpace=wrap;rounded=0;" parent="18QHKeJAl8htVsF2yORV-77" vertex="1">
          <mxGeometry x="240" y="39" width="170" height="111" as="geometry" />
        </mxCell>
        <mxCell id="18QHKeJAl8htVsF2yORV-57" value="&lt;b&gt;PLC /&amp;nbsp;&lt;/b&gt;&lt;b&gt;Sensor / Device&lt;/b&gt;" style="text;html=1;align=center;verticalAlign=middle;whiteSpace=wrap;rounded=0;" parent="18QHKeJAl8htVsF2yORV-77" vertex="1">
          <mxGeometry x="-11.5" y="288" width="161" height="32" as="geometry" />
        </mxCell>
        <mxCell id="18QHKeJAl8htVsF2yORV-82" value="&lt;span style=&quot;text-align: left;&quot;&gt;-&amp;gt; Modbus (RTU/TCP)&lt;/span&gt;&lt;br style=&quot;text-align: left;&quot;&gt;&lt;span style=&quot;text-align: left;&quot;&gt;MQTT&lt;/span&gt;&lt;br style=&quot;text-align: left;&quot;&gt;&lt;span style=&quot;text-align: left;&quot;&gt;HTTP&lt;/span&gt;&lt;br style=&quot;text-align: left;&quot;&gt;&lt;span style=&quot;text-align: left;&quot;&gt;OPC UA&lt;/span&gt;&lt;br style=&quot;text-align: left;&quot;&gt;&lt;span style=&quot;text-align: left;&quot;&gt;CoAP&lt;/span&gt;" style="text;html=1;align=center;verticalAlign=middle;whiteSpace=wrap;rounded=0;" parent="18QHKeJAl8htVsF2yORV-77" vertex="1">
          <mxGeometry x="180" y="230" width="140" height="120" as="geometry" />
        </mxCell>
        <mxCell id="18QHKeJAl8htVsF2yORV-83" value="Raspberry pi 5 (met display)&lt;br&gt;&amp;nbsp;om devices(max 25)&amp;nbsp;te koppelen met de cloud&amp;nbsp;" style="text;html=1;align=center;verticalAlign=middle;whiteSpace=wrap;rounded=0;" parent="18QHKeJAl8htVsF2yORV-77" vertex="1">
          <mxGeometry x="345" y="284" width="270" height="50" as="geometry" />
        </mxCell>
        <mxCell id="18QHKeJAl8htVsF2yORV-84" value="&lt;b&gt;Grafana&lt;/b&gt;" style="shape=process;whiteSpace=wrap;html=1;backgroundOutline=1;size=0.08333333333333333;" parent="1" vertex="1">
          <mxGeometry x="785" y="20" width="120" height="60" as="geometry" />
        </mxCell>
        <mxCell id="18QHKeJAl8htVsF2yORV-86" value="dashboard om data te visualizeren." style="text;html=1;align=center;verticalAlign=middle;whiteSpace=wrap;rounded=0;" parent="1" vertex="1">
          <mxGeometry x="905" y="20" width="130" height="50" as="geometry" />
        </mxCell>
        <mxCell id="18QHKeJAl8htVsF2yORV-92" value="Toekomst" style="swimlane;whiteSpace=wrap;html=1;" parent="1" vertex="1">
          <mxGeometry x="1020" y="239" width="320" height="417" as="geometry">
            <mxRectangle x="1020" y="239" width="90" height="30" as="alternateBounds" />
          </mxGeometry>
        </mxCell>
        <mxCell id="18QHKeJAl8htVsF2yORV-94" value="op basis van data inschatten waneer er onderhoud gepleegd moet worden&amp;nbsp;" style="shape=process;whiteSpace=wrap;html=1;backgroundOutline=1;size=0.047619047619047616;" parent="18QHKeJAl8htVsF2yORV-92" vertex="1">
          <mxGeometry x="20" y="39" width="210" height="61" as="geometry" />
        </mxCell>
        <mxCell id="18QHKeJAl8htVsF2yORV-95" value="op basis van data aangeven op welk gebied je kan verbeteren om productie sneller te laten verlopen" style="shape=process;whiteSpace=wrap;html=1;backgroundOutline=1;size=0.047619047619047616;" parent="18QHKeJAl8htVsF2yORV-92" vertex="1">
          <mxGeometry x="20" y="109" width="210" height="61" as="geometry" />
        </mxCell>
        <mxCell id="18QHKeJAl8htVsF2yORV-96" value="koppelen van slimme meters met AI oplossingen door cloud gedreven kennis interacties geven op je devices." style="shape=process;whiteSpace=wrap;html=1;backgroundOutline=1;size=0.047619047619047616;" parent="18QHKeJAl8htVsF2yORV-92" vertex="1">
          <mxGeometry x="20" y="180" width="210" height="61" as="geometry" />
        </mxCell>
        <mxCell id="18QHKeJAl8htVsF2yORV-87" value="&lt;b&gt;HMI&lt;/b&gt;" style="shape=process;whiteSpace=wrap;html=1;backgroundOutline=1;size=0.08333333333333333;" parent="18QHKeJAl8htVsF2yORV-92" vertex="1">
          <mxGeometry x="55" y="261" width="120" height="60" as="geometry" />
        </mxCell>
        <mxCell id="18QHKeJAl8htVsF2yORV-89" value="&lt;b&gt;optioneel&amp;nbsp;&lt;/b&gt;interactie geven op de &lt;b&gt;devices via &lt;/b&gt;een website/app.&lt;br&gt;&lt;br&gt;&lt;b&gt;note: &lt;/b&gt;nog geen goed pakket voor gevonden&amp;nbsp;" style="text;html=1;align=center;verticalAlign=middle;whiteSpace=wrap;rounded=0;" parent="18QHKeJAl8htVsF2yORV-92" vertex="1">
          <mxGeometry x="20" y="337" width="190" height="70" as="geometry" />
        </mxCell>
        <mxCell id="18QHKeJAl8htVsF2yORV-100" value="kosten 20 euro per maand" style="text;html=1;align=center;verticalAlign=middle;whiteSpace=wrap;rounded=0;" parent="1" vertex="1">
          <mxGeometry x="840" y="159" width="160" height="40" as="geometry" />
        </mxCell>
        <mxCell id="18QHKeJAl8htVsF2yORV-101" style="edgeStyle=orthogonalEdgeStyle;rounded=0;orthogonalLoop=1;jettySize=auto;html=1;exitX=0.5;exitY=0;exitDx=0;exitDy=0;entryX=0;entryY=0.5;entryDx=0;entryDy=0;dashed=1;" parent="1" source="18QHKeJAl8htVsF2yORV-68" target="18QHKeJAl8htVsF2yORV-84" edge="1">
          <mxGeometry relative="1" as="geometry" />
        </mxCell>
      </root>
    </mxGraphModel>
  </diagram>
</mxfile>
